<svg width="710" height="470" viewBox="0 0 710 470" fill="none" xmlns="http://www.w3.org/2000/svg">
<path d="M655.433 131.787H652.734V56.0703C652.734 25.4672 627.83 0.568726 597.214 0.568726H113.255C82.6515 0.568726 57.7546 25.4672 57.7546 56.0703V135.662H54.5687C24.6859 135.662 0.371826 159.975 0.371826 189.859V291.766H0.876514V407.769C0.876514 421.156 11.7703 432.048 25.1593 432.048H42.1812V454.794C42.1812 462.864 48.7468 469.43 56.8156 469.43H69.9406C78.0093 469.43 84.5734 462.864 84.5734 454.794V432.048H625.912V454.794C625.912 462.864 632.477 469.43 640.545 469.43H653.67C661.739 469.43 668.306 462.864 668.306 454.794V432.048H685.347C698.734 432.048 709.623 421.156 709.623 407.769V291.892V280.517V185.984C709.627 156.1 685.316 131.787 655.433 131.787ZM69.0046 56.0703C69.0046 31.6703 88.8546 11.8203 113.253 11.8203H597.214C621.625 11.8203 641.486 31.6703 641.486 56.0703V131.787H632.605C617.456 131.787 605.13 144.114 605.13 159.266V203.817C553.222 170.077 495.928 147.591 434.644 136.967C381.897 127.82 328.464 127.925 275.822 137.27C213.228 148.359 154.933 171.773 102.362 206.875V163.141C102.362 147.991 90.0359 135.664 74.8859 135.664H69.0031L69.0046 56.0703ZM605.131 217.317V280.511H439.317V149.284C499.016 160.539 554.753 183.398 605.131 217.317ZM275.4 148.803C276.198 148.658 276.987 148.489 277.786 148.348C329.137 139.228 381.269 139.128 432.722 148.053C434.07 148.286 435.402 148.559 436.744 148.803H428.067V280.511H282.428V148.803H275.4ZM271.178 149.611V280.511H102.364V220.489C153.408 185.162 210.155 161.347 271.178 149.611ZM11.6234 189.859C11.6234 166.18 30.8874 146.914 54.5687 146.914H74.8874C83.8374 146.914 91.1156 154.194 91.1156 163.141V280.517H11.6234V189.859ZM73.3249 454.794C73.3249 456.661 71.8078 458.178 69.9421 458.178H56.8171C54.95 458.178 53.4328 456.661 53.4328 454.794V433.055H73.3249V454.794ZM657.059 454.794C657.059 456.661 655.539 458.178 653.672 458.178H640.547C638.68 458.178 637.162 456.661 637.162 454.794V433.055H657.059V454.794ZM698.378 407.769C698.378 414.955 692.534 420.8 685.35 420.8H25.1609C17.975 420.8 12.1281 414.955 12.1281 407.769V291.766H102.364H113.437H597.072H605.131V291.892H698.378V407.769ZM698.378 280.517H616.38V159.266C616.38 150.317 623.658 143.037 632.606 143.037H655.433C679.114 143.037 698.377 162.303 698.377 185.983V280.517H698.378Z" fill="black" stroke="black" stroke-width="0.008"/>
</svg>
